<svg width="32" height="32" viewBox="0 0 32 32" fill="none" xmlns="http://www.w3.org/2000/svg">
<path fill-rule="evenodd" clip-rule="evenodd" d="M16 27.0606C19.228 27.0606 22.133 25.6778 24.155 23.4723L27.3313 25.8289C24.5811 28.9968 20.5245 31 16 31C11.4575 31 7.38658 28.9808 4.63586 25.791L7.89968 23.5314C9.91919 25.7025 12.801 27.0606 16 27.0606ZM27.0606 16C27.0606 17.9221 26.5703 19.7297 25.708 21.3045L29.0974 23.317C30.3092 21.1525 31 18.6569 31 16C31 7.71573 24.2843 1 16 1C7.71573 1 1 7.71573 1 16C1 18.6852 1.70558 21.2056 2.94144 23.386L6.19891 21.1308C5.39448 19.5973 4.9394 17.8518 4.9394 16C4.9394 9.8914 9.8914 4.9394 16 4.9394C22.1086 4.9394 27.0606 9.8914 27.0606 16ZM19.1822 8.27282L11.9094 15.8486L15.2428 16.6062L13.1215 23.1213L20.0912 15.6971L16.9094 14.788L19.1822 8.27282Z" fill="white"/>
</svg>
